<svg xmlns="http://www.w3.org/2000/svg" viewBox="0 0 111.92 111.88">
  <g id="Layer_2" data-name="Layer 2">
    <g id="Layer_1-2" data-name="Layer 1">
      <g id="THGLMO.tif">
        <path d="M40.84,55.87l-26-26C10.94,26,7,22.16,3.19,18.2A10.17,10.17,0,0,1,.68,7.14a10.28,10.28,0,0,1,8.4-7C13-.52,16.21,1.05,19,3.8q16,16,32,32c1.58,1.59,3.1,3.25,4.84,5.09.84-.78,1.5-1.35,2.12-2q17.49-17.49,35-35c3.1-3.1,6.62-4.68,11-3.53a10.59,10.59,0,0,1,6,16.33,21.89,21.89,0,0,1-2.48,2.8Q90.36,36.68,73.2,53.81c-.64.64-1.25,1.3-2,2.09.68.74,1.27,1.41,1.9,2q17.58,17.58,35.15,35.18c5.17,5.2,4.84,12.46-.61,16.56a10.42,10.42,0,0,1-12.76,0,25,25,0,0,1-2.58-2.35q-17-17-33.93-33.94c-.7-.7-1.29-1.52-2.11-2.51-.92.87-1.58,1.45-2.2,2.07Q36.47,90.54,18.87,108.11c-5.15,5.14-12.22,5-16.42-.23a10.38,10.38,0,0,1-.16-13.15,24.82,24.82,0,0,1,2.19-2.4L38.75,58.05C39.39,57.41,40,56.74,40.84,55.87Z"/>
      </g>
    </g>
  </g>
</svg>
