<svg xmlns="http://www.w3.org/2000/svg" viewBox="0 0 161.22 175.81">
  <g id="Layer_2" data-name="Layer 2">
    <g id="Layer_1-2" data-name="Layer 1">
      <g id="pPuuij">
        <g>
          <path d="M161.22,38c-2,2.18-3.33,3.73-4.76,5.17C127.71,71.94,99,100.77,70.08,129.33c-2.71,2.68-6.88,4.48-10.68,5.31-9.93,2.19-20,3.82-30.08,5.29-7,1-10.11-1.8-9.13-8.77,1.61-11.52,3.76-23,6-34.39a11.9,11.9,0,0,1,3.35-5.68Q73.43,47,117.52,3c1.8-1.8,3.49-4.76,6.6-1.69Zm-24.58,2c-5.59-6-10.62-11.41-15.85-17C97,46.91,73.26,71.31,48.74,94.85c-8,7.7-8.74,16.64-10.18,27.77,7.9-2.26,16.65-2.17,21.21-6.49C86.26,91,111.76,64.89,136.64,40.05Z"/>
          <path d="M72.57,156c19.82,0,39.64,0,59.46,0,8.24,0,12.34,3.4,12.3,9.94s-4.22,9.83-12.49,9.84q-59.78.06-119.56,0c-8.28,0-12.34-3.43-12.28-10S4,156,12.47,156Q42.52,156,72.57,156Z"/>
        </g>
      </g>
    </g>
  </g>
</svg>
