<svg xmlns="http://www.w3.org/2000/svg" viewBox="0 0 237.15 196.97">
  <g id="Layer_2" data-name="Layer 2">
    <g id="Layer_1-2" data-name="Layer 1">
      <g id="ABZfpP">
        <g>
          <path d="M118.85,0h97c12.44,0,21.29,8.17,21.22,19.55C237,30.77,228.23,39,216.07,39q-97.5,0-195,0C8.94,39,.18,30.75.1,19.54S8.91,0,21.36,0Z"/>
          <path d="M118.12,197q-49,0-98,0c-8,0-14.19-3.47-17.85-10.64s-2.84-14.28,2-20.65C8.57,159.87,14.79,158,21.82,158q89,.06,178,0c5.67,0,11.34-.06,17,0,11.65.16,20.33,8.59,20.26,19.6S228.29,196.94,216.6,197Q167.36,197,118.12,197Z"/>
          <path d="M118.46,79q49.24,0,98.49,0c7.93,0,14.22,3.4,17.9,10.58,3.56,7,3,13.86-1.57,20.25-3.95,5.59-9.63,8.08-16.32,8.08q-98.24.06-196.48,0C8.83,117.94.1,109.49.1,98.48S8.83,79,20.47,79Q69.46,78.94,118.46,79Z"/>
        </g>
      </g>
    </g>
  </g>
</svg>
