<svg xmlns="http://www.w3.org/2000/svg" viewBox="0 0 979.23 979.31">
  <g id="Layer_2" data-name="Layer 2">
    <g id="Layer_1-2" data-name="Layer 1">
      <path fill="#4e4ef3" d="M511.54,979.31h-44c-1.95-.3-3.89-.76-5.85-.87A469.94,469.94,0,0,1,320.16,949.1Q155.52,887,66.07,735.27C30.91,675.55,10.09,610.92,2.86,542,1.81,531.91,1,521.83,0,511.76V467.81a51.65,51.65,0,0,0,.82-5.33c1.75-34.36,6.88-68.22,16.34-101.27,39.6-138.3,123.11-241.47,250.7-307.66C362.24,4.6,463-10.08,567.88,6.6,663.56,21.81,747.68,62.33,819,127.9Q959.74,257.44,977.26,448.59a470,470,0,0,1-13.9,164.3Q917.71,784.69,773.24,888.58c-69.2,49.79-146.63,78.8-231.47,87.85C531.71,977.51,521.62,978.35,511.54,979.31ZM699.25,514.23q0-77.67,0-155.34c0-20.58-5.43-39.47-18.54-55.69-23.47-29.06-61.89-30.14-86.72-2.29-14,15.73-20.24,34.62-20.42,55.44-.25,29-.07,57.94-.07,86.91q0,113.39,0,226.78c0,20.08,5.16,38.6,17.89,54.38,14.47,17.93,33,26.88,56.29,21.93,18.61-4,31.39-16.06,40.54-32.23,7.89-13.94,11-29.12,11-45Zm-293.55.22q0-78.14,0-156.27c0-19.55-5.08-37.51-17-53.18-24.32-32-65.87-32.42-90.86-1a73.59,73.59,0,0,0-15,31.2,126.28,126.28,0,0,0-2.82,24.7q-.27,154.29-.13,308.56c0,19.28,4.4,37.26,15.78,53.12,24.8,34.57,68.7,34.86,93.84.58,11.31-15.42,16.14-33,16.13-52Q405.69,592.33,405.7,514.45Z"/>
    </g>
  </g>
</svg>
