<svg xmlns="http://www.w3.org/2000/svg" viewBox="0 0 148.91 145.31">
  <g id="Layer_2" data-name="Layer 2">
    <g id="Layer_1-2" data-name="Layer 1">
      <g>
        <path d="M71.62,90.3c-10.47,10.4-21.08,20.79-31.86,31-4.56,4.32-13.31,4.23-21.22,6.48C20,116.67,20.71,107.72,28.73,100Q42.16,87.13,55.29,74L43.51,62.18q-17,17-34,34.08A12,12,0,0,0,6.15,102c-2.21,11.42-4.36,22.87-6,34.39-1,7,2.11,9.79,9.13,8.77,10.07-1.47,20.14-3.1,30.08-5.29,3.79-.84,8-2.64,10.67-5.31q16.56-16.33,33-32.77Z"/>
        <path d="M111.8,1.33c-3.11-3.07-4.8-.11-6.59,1.69q-20,20-40,40Q71.09,48.88,77,54.78C87.5,44.18,98,33.56,108.48,23c5.23,5.6,10.25,11,15.85,17-10.22,10.2-20.54,20.62-31,31.09q5.72,5.73,11.44,11.44,19.69-19.69,39.37-39.41c1.43-1.44,2.76-3,4.76-5.17Z"/>
      </g>
      <path d="M81.78,66q23.66,23.66,47.32,47.34c6.54,6.56,7.41,12.21,2.75,16.81s-10.3,3.6-16.89-3Q67.33,79.67,19.81,32c-6.59-6.59-7.39-12.24-2.7-16.84s10.1-3.7,16.83,3Q57.9,42.09,81.78,66Z"/>
    </g>
  </g>
</svg>
